<svg width="82" height="83" viewBox="0 0 82 83" fill="none" xmlns="http://www.w3.org/2000/svg">
<g filter="url(#filter0_d_130_23354)">
<path fill-rule="evenodd" clip-rule="evenodd" d="M41 54C48.732 54 55 47.732 55 40C55 32.268 48.732 26 41 26C33.268 26 27 32.268 27 40C27 42.5109 27.661 44.8674 28.8185 46.905L27 54L34.3149 52.3038C36.3014 53.3854 38.5789 54 41 54ZM41 51.8462C47.5425 51.8462 52.8462 46.5425 52.8462 40C52.8462 33.4576 47.5425 28.1538 41 28.1538C34.4576 28.1538 29.1538 33.4576 29.1538 40C29.1538 42.5261 29.9445 44.8675 31.2918 46.7902L30.2308 50.7692L34.2799 49.7569C36.1894 51.0746 38.5046 51.8462 41 51.8462Z" fill="#BFC8D0"/>
<path d="M53 39C53 45.6274 47.6274 51 41 51C38.4722 51 36.1269 50.2184 34.1927 48.8837L30.0909 49.9091L31.1658 45.8784C29.8009 43.9307 29 41.5589 29 39C29 32.3726 34.3726 27 41 27C47.6274 27 53 32.3726 53 39Z" fill="url(#paint0_linear_130_23354)"/>
<path fill-rule="evenodd" clip-rule="evenodd" d="M41 53C48.732 53 55 46.732 55 39C55 31.268 48.732 25 41 25C33.268 25 27 31.268 27 39C27 41.5109 27.661 43.8674 28.8185 45.905L27 53L34.3149 51.3038C36.3014 52.3854 38.5789 53 41 53ZM41 50.8462C47.5425 50.8462 52.8462 45.5425 52.8462 39C52.8462 32.4576 47.5425 27.1538 41 27.1538C34.4576 27.1538 29.1538 32.4576 29.1538 39C29.1538 41.5261 29.9445 43.8675 31.2918 45.7902L30.2308 49.7692L34.2799 48.7569C36.1894 50.0746 38.5046 50.8462 41 50.8462Z" fill="white"/>
<path d="M37.5 32.5C37.1672 31.8314 36.6565 31.8906 36.1407 31.8906C35.2188 31.8906 33.7812 32.9949 33.7812 35.0501C33.7813 36.7344 34.5234 38.5782 37.0244 41.3362C39.438 43.998 42.6094 45.3749 45.2422 45.3281C47.875 45.2812 48.4167 43.0156 48.4167 42.2504C48.4167 41.9113 48.2062 41.7421 48.0613 41.6961C47.1641 41.2656 45.5093 40.4633 45.1328 40.3125C44.7563 40.1618 44.5597 40.3657 44.4375 40.4766C44.0961 40.802 43.4193 41.7609 43.1875 41.9766C42.9558 42.1923 42.6103 42.0831 42.4665 42.0016C41.9374 41.7893 40.5029 41.1512 39.3595 40.0427C37.9453 38.6719 37.8623 38.2003 37.5959 37.7804C37.3828 37.4446 37.5392 37.2385 37.6172 37.1484C37.9219 36.7969 38.3426 36.2541 38.5313 35.9844C38.7199 35.7147 38.5702 35.3051 38.4803 35.0501C38.0938 33.9531 37.7663 33.0349 37.5 32.5Z" fill="white"/>
</g>
<defs>
<filter id="filter0_d_130_23354" x="-2" y="-2" width="86" height="86" filterUnits="userSpaceOnUse" color-interpolation-filters="sRGB">
<feFlood flood-opacity="0" result="BackgroundImageFix"/>
<feColorMatrix in="SourceAlpha" type="matrix" values="0 0 0 0 0 0 0 0 0 0 0 0 0 0 0 0 0 0 127 0" result="hardAlpha"/>
<feOffset dy="2"/>
<feGaussianBlur stdDeviation="13.5"/>
<feComposite in2="hardAlpha" operator="out"/>
<feColorMatrix type="matrix" values="0 0 0 0 1 0 0 0 0 1 0 0 0 0 1 0 0 0 0.12 0"/>
<feBlend mode="normal" in2="BackgroundImageFix" result="effect1_dropShadow_130_23354"/>
<feBlend mode="normal" in="SourceGraphic" in2="effect1_dropShadow_130_23354" result="shape"/>
</filter>
<linearGradient id="paint0_linear_130_23354" x1="51.5" y1="30" x2="29" y2="51" gradientUnits="userSpaceOnUse">
<stop stop-color="#5BD066"/>
<stop offset="1" stop-color="#27B43E"/>
</linearGradient>
</defs>
</svg>
