<svg width="32" height="32" viewBox="0 0 32 32" fill="none" xmlns="http://www.w3.org/2000/svg">
<path d="M29.2934 24.44C29.2934 24.92 29.1867 25.4133 28.96 25.8933C28.7334 26.3733 28.44 26.8266 28.0534 27.2533C27.4 27.9733 26.68 28.4933 25.8667 28.8266C25.0667 29.16 24.2 29.3333 23.2667 29.3333C21.9067 29.3333 20.4534 29.0133 18.92 28.36C17.3867 27.7066 15.8534 26.8266 14.3334 25.72C12.8 24.6 11.3467 23.36 9.96002 21.9866C8.58669 20.6 7.34669 19.1466 6.24002 17.6266C5.14669 16.1066 4.26669 14.5866 3.62669 13.08C2.98669 11.56 2.66669 10.1066 2.66669 8.71996C2.66669 7.81329 2.82669 6.94663 3.14669 6.14663C3.46669 5.33329 3.97335 4.58663 4.68002 3.91996C5.53335 3.07996 6.46669 2.66663 7.45335 2.66663C7.82669 2.66663 8.20002 2.74663 8.53335 2.90663C8.88002 3.06663 9.18669 3.30663 9.42669 3.65329L12.52 8.01329C12.76 8.34663 12.9334 8.65329 13.0534 8.94663C13.1734 9.22663 13.24 9.50663 13.24 9.75996C13.24 10.08 13.1467 10.4 12.96 10.7066C12.7867 11.0133 12.5334 11.3333 12.2134 11.6533L11.2 12.7066C11.0534 12.8533 10.9867 13.0266 10.9867 13.24C10.9867 13.3466 11 13.44 11.0267 13.5466C11.0667 13.6533 11.1067 13.7333 11.1334 13.8133C11.3734 14.2533 11.7867 14.8266 12.3734 15.52C12.9734 16.2133 13.6134 16.92 14.3067 17.6266C15.0267 18.3333 15.72 18.9866 16.4267 19.5866C17.12 20.1733 17.6934 20.5733 18.1467 20.8133C18.2134 20.84 18.2934 20.88 18.3867 20.92C18.4934 20.96 18.6 20.9733 18.72 20.9733C18.9467 20.9733 19.12 20.8933 19.2667 20.7466L20.28 19.7466C20.6134 19.4133 20.9334 19.16 21.24 19C21.5467 18.8133 21.8534 18.72 22.1867 18.72C22.44 18.72 22.7067 18.7733 23 18.8933C23.2934 19.0133 23.6 19.1866 23.9334 19.4133L28.3467 22.5466C28.6934 22.7866 28.9334 23.0666 29.08 23.4C29.2134 23.7333 29.2934 24.0666 29.2934 24.44Z" stroke="#C5FF2E" stroke-opacity="0.85" stroke-width="2" stroke-miterlimit="10"/>
</svg>
