<svg xmlns="http://www.w3.org/2000/svg"><style>:root svg:not(:target){display:none}</style><svg fill="none" id="hero-bg" viewBox="0 0 264 364"><path d="M260.143 27.643V3H3v357.143h257.143V169.071" stroke="#C5FF2E" stroke-width="6"></path></svg><svg fill="none" id="icon-book-saved" viewBox="0 0 24 24"><path d="M22 4.67v12.07c0 .96-.78 1.86-1.74 1.98l-.33.04c-2.18.29-5.54 1.4-7.46 2.46-.26.15-.69.15-.96 0l-.04-.02c-1.92-1.05-5.27-2.15-7.44-2.44l-.29-.04C2.78 18.6 2 17.7 2 16.74V4.66c0-1.19.97-2.09 2.16-1.99 2.1.17 5.28 1.23 7.06 2.34l.25.15c.29.18.77.18 1.06 0l.17-.11c.63-.39 1.43-.78 2.3-1.13V8l2-1.33L19 8V2.78c.27-.05.53-.08.77-.1h.06c1.19-.1 2.17.79 2.17 1.99ZM12 5.49v15" stroke="#000" stroke-width="1.5" stroke-linecap="round" stroke-linejoin="round"></path><path d="M19 2.78V8l-2-1.33L15 8V3.92c1.31-.52 2.77-.94 4-1.14Z" stroke="#000" stroke-width="1.5" stroke-linecap="round" stroke-linejoin="round"></path></svg><svg fill="none" id="icon-call" viewBox="0 0 32 32"><path d="M29.293 24.44c0 .48-.106.973-.333 1.453-.227.48-.52.934-.907 1.36-.653.72-1.373 1.24-2.186 1.574-.8.333-1.667.506-2.6.506-1.36 0-2.814-.32-4.347-.973-1.533-.653-3.067-1.533-4.587-2.64a38.323 38.323 0 0 1-4.373-3.733 37.88 37.88 0 0 1-3.72-4.36c-1.093-1.52-1.973-3.04-2.613-4.547-.64-1.52-.96-2.973-.96-4.36 0-.907.16-1.773.48-2.573.32-.814.826-1.56 1.533-2.227.853-.84 1.787-1.253 2.773-1.253.374 0 .747.08 1.08.24.347.16.654.4.894.746l3.093 4.36c.24.334.413.64.533.934.12.28.187.56.187.813 0 .32-.093.64-.28.947a4.533 4.533 0 0 1-.747.946L11.2 12.707a.714.714 0 0 0-.213.533c0 .107.013.2.04.307.04.106.08.186.106.266.24.44.654 1.014 1.24 1.707.6.693 1.24 1.4 1.934 2.107a40.08 40.08 0 0 0 2.12 1.96c.693.586 1.266.986 1.72 1.226.066.027.146.067.24.107a.92.92 0 0 0 .333.053c.227 0 .4-.08.547-.226l1.013-1c.333-.334.653-.587.96-.747.307-.187.613-.28.947-.28.253 0 .52.053.813.173.293.12.6.294.933.52l4.414 3.134c.346.24.586.52.733.853.133.333.213.667.213 1.04Z" stroke="#C5FF2E" stroke-opacity=".85" stroke-width="2" stroke-miterlimit="10"></path></svg><svg fill="none" id="icon-global" viewBox="0 0 32 32"><path d="M16 29.333c7.364 0 13.333-5.97 13.333-13.333 0-7.364-5.97-13.333-13.333-13.333C8.636 2.667 2.667 8.637 2.667 16c0 7.364 5.97 13.333 13.333 13.333Z" stroke="#C5FF2E" stroke-opacity=".85" stroke-width="2" stroke-linecap="round" stroke-linejoin="round"></path><path d="M10.667 4H12a37.898 37.898 0 0 0 0 24h-1.333M20 4a37.898 37.898 0 0 1 0 24" stroke="#C5FF2E" stroke-opacity=".85" stroke-width="2" stroke-linecap="round" stroke-linejoin="round"></path><path d="M4 21.333V20a37.898 37.898 0 0 0 24 0v1.333M4 12a37.899 37.899 0 0 1 24 0" stroke="#C5FF2E" stroke-opacity=".85" stroke-width="2" stroke-linecap="round" stroke-linejoin="round"></path></svg><svg fill="none" id="icon-select-arrow" viewBox="0 0 14 11"><path d="M7.866 10.5a1 1 0 0 1-1.732 0l-5.196-9A1 1 0 0 1 1.804 0h10.392a1 1 0 0 1 .866 1.5l-5.196 9Z" fill="#4D4D4D"></path></svg><svg fill="none" id="icon-telegram" viewBox="0 0 32 32"><circle cx="16" cy="16" r="14" fill="url(#icon-telegram_0)"></circle><path d="M22.987 10.209c.124-.806-.642-1.441-1.358-1.127L7.365 15.345c-.514.225-.476 1.003.056 1.173l2.942.937c.562.179 1.17.086 1.66-.253l6.632-4.582c.2-.138.418.147.247.323l-4.774 4.922c-.463.477-.371 1.286.186 1.636l5.345 3.351c.6.376 1.37-.001 1.483-.726l1.845-11.917Z" fill="#fff"></path><defs><linearGradient id="icon-telegram_0" x1="16" y1="2" x2="16" y2="30" gradientUnits="userSpaceOnUse"><stop stop-color="#37BBFE"></stop><stop offset="1" stop-color="#007DBB"></stop></linearGradient></defs></svg><svg fill="none" id="icon-whatsapp" viewBox="0 0 32 32"><path fill-rule="evenodd" clip-rule="evenodd" d="M16 31c7.732 0 14-6.268 14-14S23.732 3 16 3 2 9.268 2 17c0 2.51.661 4.867 1.818 6.905L2 31l7.315-1.696A13.938 13.938 0 0 0 16 31Zm0-2.154c6.543 0 11.846-5.303 11.846-11.846 0-6.542-5.303-11.846-11.846-11.846C9.458 5.154 4.154 10.458 4.154 17c0 2.526.79 4.867 2.138 6.79L5.23 27.77l4.049-1.013a11.791 11.791 0 0 0 6.72 2.09Z" fill="#BFC8D0"></path><path d="M28 16c0 6.627-5.373 12-12 12-2.528 0-4.873-.782-6.807-2.116L5.09 26.909l1.075-4.03A11.945 11.945 0 0 1 4 16C4 9.373 9.373 4 16 4s12 5.373 12 12Z" fill="url(#icon-whatsapp_0)"></path><path fill-rule="evenodd" clip-rule="evenodd" d="M16 30c7.732 0 14-6.268 14-14S23.732 2 16 2 2 8.268 2 16c0 2.51.661 4.867 1.818 6.905L2 30l7.315-1.696A13.938 13.938 0 0 0 16 30Zm0-2.154c6.543 0 11.846-5.303 11.846-11.846 0-6.542-5.303-11.846-11.846-11.846C9.458 4.154 4.154 9.458 4.154 16c0 2.526.79 4.867 2.138 6.79L5.23 26.77l4.049-1.013a11.791 11.791 0 0 0 6.72 2.09Z" fill="#fff"></path><path d="M12.5 9.5c-.333-.669-.844-.61-1.36-.61-.921 0-2.359 1.105-2.359 3.16 0 1.684.742 3.528 3.243 6.286 2.414 2.662 5.585 4.039 8.218 3.992 2.633-.047 3.175-2.312 3.175-3.078 0-.339-.21-.508-.356-.554-.897-.43-2.552-1.233-2.928-1.384-.377-.15-.573.054-.695.165-.342.325-1.019 1.284-1.25 1.5-.232.215-.578.106-.721.025-.53-.213-1.964-.85-3.107-1.96-1.415-1.37-1.498-1.842-1.764-2.262-.213-.335-.057-.541.021-.632.305-.351.726-.894.914-1.164.189-.27.04-.679-.05-.934-.387-1.097-.715-2.015-.981-2.55Z" fill="#fff"></path><defs><linearGradient id="icon-whatsapp_0" x1="26.5" y1="7" x2="4" y2="28" gradientUnits="userSpaceOnUse"><stop stop-color="#5BD066"></stop><stop offset="1" stop-color="#27B43E"></stop></linearGradient></defs></svg></svg>